<svg xmlns="http://www.w3.org/2000/svg" viewBox="0 0 60 60">
  <!-- fundo -->
  <rect width="60" height="60" rx="14" fill="#0f172a"/>

  <!-- antena haste -->
  <rect x="28" y="3" width="4" height="13" rx="2" fill="#334155"/>
  <!-- antena bola -->
  <circle cx="30" cy="4" r="4.5" fill="#6366f1"/>

  <!-- rosto -->
  <rect x="8" y="15" width="44" height="37" rx="12" fill="#1e293b"/>

  <!-- orelha esq -->
  <rect x="3" y="25" width="5" height="13" rx="3" fill="#1e293b"/>
  <!-- orelha dir -->
  <rect x="52" y="25" width="5" height="13" rx="3" fill="#1e293b"/>

  <!-- olho esq -->
  <circle cx="21" cy="31" r="7.5" fill="#22d3ee"/>
  <circle cx="21" cy="31" r="3.5" fill="#0f172a"/>
  <circle cx="23.5" cy="28.5" r="1.8" fill="white" opacity="0.45"/>

  <!-- olho dir -->
  <circle cx="39" cy="31" r="7.5" fill="#22d3ee"/>
  <circle cx="39" cy="31" r="3.5" fill="#0f172a"/>
  <circle cx="41.5" cy="28.5" r="1.8" fill="white" opacity="0.45"/>

  <!-- boca -->
  <rect x="18" y="43" width="24" height="5" rx="2.5" fill="#334155"/>
  <rect x="19.5" y="44" width="6" height="3" rx="1.5" fill="#22d3ee"/>
  <rect x="27" y="44" width="6" height="3" rx="1.5" fill="#22d3ee"/>
  <rect x="34.5" y="44" width="6" height="3" rx="1.5" fill="#22d3ee"/>
</svg>
